  0
SECTION
  2
HEADER
  9
$ACADVER
  1
AC1009
  9
$EXTMIN
 10
0.0
 20
0.0
 30
0.0
  9
$EXTMAX
 10
1000.0
 20
1000.0
 30
0.0
  9
$FILLMODE
 70
 0
  9
$SPLFRAME
 70
 1
  0
ENDSEC
  0
SECTION
  2
TABLES
  0
TABLE
  2
LAYER
 70
1
  0
LAYER
  2
0
 70
     0
 62
     7
  6
CONTINUOUS
  0
ENDTAB
  0
ENDSEC
  0
SECTION
  2
ENTITIES
  0
POLYLINE
  8
0
 62
     0
 66
     1
 10
0
 20
0
 30
0.0
 70
     1
 40
0
 41
0
  0
VERTEX
  8
0
 10
0.128961
 20
0.0120443
 30
0.0
 40
0
 41
0
  0
VERTEX
  8
0
 10
0.119846
 20
0.0124783
 30
0.0
 40
0
 41
0
  0
VERTEX
  8
0
 10
0.0979818
 20
0.0153537
 30
0.0
 40
0
 41
0
  0
VERTEX
  8
0
 10
0.0713976
 20
0.0230578
 30
0.0
 40
0
 41
0
  0
VERTEX
  8
0
 10
0.0481228
 20
0.0381401
 30
0.0
 40
0
 41
0
  0
VERTEX
  8
0
 10
0.0309787
 20
0.0642361
 30
0.0
 40
0
 41
0
  0
VERTEX
  8
0
 10
0.0219726
 20
0.0920682
 30
0.0
 40
0
 41
0
  0
VERTEX
  8
0
 10
0.0184463
 20
0.114149
 30
0.0
 40
0
 41
0
  0
VERTEX
  8
0
 10
0.0178494
 20
0.123155
 30
0.0
 40
0
 41
0
  0
VERTEX
  8
0
 10
0.0178494
 20
0.789822
 30
0.0
 40
0
 41
0
  0
VERTEX
  8
0
 10
0.0179579
 20
0.799696
 30
0.0
 40
0
 41
0
  0
VERTEX
  8
0
 10
0.0204536
 20
0.823188
 30
0.0
 40
0
 41
0
  0
VERTEX
  8
0
 10
0.0283203
 20
0.851508
 30
0.0
 40
0
 41
0
  0
VERTEX
  8
0
 10
0.0446506
 20
0.875543
 30
0.0
 40
0
 41
0
  0
VERTEX
  8
0
 10
0.0699328
 20
0.890246
 30
0.0
 40
0
 41
0
  0
VERTEX
  8
0
 10
0.0975478
 20
0.897786
 30
0.0
 40
0
 41
0
  0
VERTEX
  8
0
 10
0.119792
 20
0.900553
 30
0.0
 40
0
 41
0
  0
VERTEX
  8
0
 10
0.128961
 20
0.900933
 30
0.0
 40
0
 41
0
  0
VERTEX
  8
0
 10
1.90674
 20
0.900933
 30
0.0
 40
0
 41
0
  0
VERTEX
  8
0
 10
1.91585
 20
0.900444
 30
0.0
 40
0
 41
0
  0
VERTEX
  8
0
 10
1.93838
 20
0.896972
 30
0.0
 40
0
 41
0
  0
VERTEX
  8
0
 10
1.96664
 20
0.887588
 30
0.0
 40
0
 41
0
  0
VERTEX
  8
0
 10
1.99317
 20
0.869249
 30
0.0
 40
0
 41
0
  0
VERTEX
  8
0
 10
2.01004
 20
0.843479
 30
0.0
 40
0
 41
0
  0
VERTEX
  8
0
 10
2.01708
 20
0.817654
 30
0.0
 40
0
 41
0
  0
VERTEX
  8
0
 10
2.01833
 20
0.797797
 30
0.0
 40
0
 41
0
  0
VERTEX
  8
0
 10
2.01785
 20
0.789822
 30
0.0
 40
0
 41
0
  0
VERTEX
  8
0
 10
2.01785
 20
0.123155
 30
0.0
 40
0
 41
0
  0
VERTEX
  8
0
 10
2.01768
 20
0.11377
 30
0.0
 40
0
 41
0
  0
VERTEX
  8
0
 10
2.01525
 20
0.0911458
 30
0.0
 40
0
 41
0
  0
VERTEX
  8
0
 10
2.00743
 20
0.0634224
 30
0.0
 40
0
 41
0
  0
VERTEX
  8
0
 10
1.9911
 20
0.0388997
 30
0.0
 40
0
 41
0
  0
VERTEX
  8
0
 10
1.96576
 20
0.0233832
 30
0.0
 40
0
 41
0
  0
VERTEX
  8
0
 10
1.9381
 20
0.0154081
 30
0.0
 40
0
 41
0
  0
VERTEX
  8
0
 10
1.91585
 20
0.0124783
 30
0.0
 40
0
 41
0
  0
VERTEX
  8
0
 10
1.90674
 20
0.0120443
 30
0.0
 40
0
 41
0
  0
VERTEX
  8
0
 10
0.740072
 20
0.0120443
 30
0.0
 40
0
 41
0
  0
VERTEX
  8
0
 10
0.740072
 20
0.0675999
 30
0.0
 40
0
 41
0
  0
VERTEX
  8
0
 10
0.744521
 20
0.0825738
 30
0.0
 40
0
 41
0
  0
VERTEX
  8
0
 10
0.756347
 20
0.104926
 30
0.0
 40
0
 41
0
  0
VERTEX
  8
0
 10
0.766601
 20
0.112033
 30
0.0
 40
0
 41
0
  0
VERTEX
  8
0
 10
0.779622
 20
0.117839
 30
0.0
 40
0
 41
0
  0
VERTEX
  8
0
 10
0.790853
 20
0.121745
 30
0.0
 40
0
 41
0
  0
VERTEX
  8
0
 10
0.795628
 20
0.123155
 30
0.0
 40
0
 41
0
  0
VERTEX
  8
0
 10
0.851183
 20
0.123155
 30
0.0
 40
0
 41
0
  0
VERTEX
  8
0
 10
0.866863
 20
0.127658
 30
0.0
 40
0
 41
0
  0
VERTEX
  8
0
 10
0.890082
 20
0.139594
 30
0.0
 40
0
 41
0
  0
VERTEX
  8
0
 10
0.902126
 20
0.162924
 30
0.0
 40
0
 41
0
  0
VERTEX
  8
0
 10
0.906739
 20
0.178711
 30
0.0
 40
0
 41
0
  0
VERTEX
  8
0
 10
0.906739
 20
0.5676
 30
0.0
 40
0
 41
0
  0
VERTEX
  8
0
 10
0.907553
 20
0.576878
 30
0.0
 40
0
 41
0
  0
VERTEX
  8
0
 10
0.906901
 20
0.599338
 30
0.0
 40
0
 41
0
  0
VERTEX
  8
0
 10
0.900336
 20
0.626899
 30
0.0
 40
0
 41
0
  0
VERTEX
  8
0
 10
0.883192
 20
0.651476
 30
0.0
 40
0
 41
0
  0
VERTEX
  8
0
 10
0.855957
 20
0.667264
 30
0.0
 40
0
 41
0
  0
VERTEX
  8
0
 10
0.827365
 20
0.675347
 30
0.0
 40
0
 41
0
  0
VERTEX
  8
0
 10
0.804796
 20
0.678331
 30
0.0
 40
0
 41
0
  0
VERTEX
  8
0
 10
0.795628
 20
0.678711
 30
0.0
 40
0
 41
0
  0
VERTEX
  8
0
 10
0.462294
 20
0.678711
 30
0.0
 40
0
 41
0
  0
VERTEX
  8
0
 10
0.453233
 20
0.678549
 30
0.0
 40
0
 41
0
  0
VERTEX
  8
0
 10
0.431261
 20
0.675999
 30
0.0
 40
0
 41
0
  0
VERTEX
  8
0
 10
0.404081
 20
0.668132
 30
0.0
 40
0
 41
0
  0
VERTEX
  8
0
 10
0.379286
 20
0.651801
 30
0.0
 40
0
 41
0
  0
VERTEX
  8
0
 10
0.36301
 20
0.626574
 30
0.0
 40
0
 41
0
  0
VERTEX
  8
0
 10
0.354656
 20
0.598958
 30
0.0
 40
0
 41
0
  0
VERTEX
  8
0
 10
0.351617
 20
0.576768
 30
0.0
 40
0
 41
0
  0
VERTEX
  8
0
 10
0.351183
 20
0.5676
 30
0.0
 40
0
 41
0
  0
VERTEX
  8
0
 10
0.351183
 20
0.0120443
 30
0.0
 40
0
 41
0
  0
VERTEX
  8
0
 10
0.128961
 20
0.0120443
 30
0.0
 40
0
 41
0
  0
SEQEND
 8
0
  0
POLYLINE
  8
0
 62
     0
 66
     1
 10
0
 20
0
 30
0.0
 70
     1
 40
2
 41
2
  0
VERTEX
  8
0
 10
0.128961
 20
0.0120443
 30
0.0
 40
0.0277778
 41
0.0277778
  0
VERTEX
  8
0
 10
0.119846
 20
0.0124783
 30
0.0
 40
0.0277778
 41
0.0277778
  0
VERTEX
  8
0
 10
0.0979818
 20
0.0153537
 30
0.0
 40
0.0277778
 41
0.0277778
  0
VERTEX
  8
0
 10
0.0713976
 20
0.0230578
 30
0.0
 40
0.0277778
 41
0.0277778
  0
VERTEX
  8
0
 10
0.0481228
 20
0.0381401
 30
0.0
 40
0.0277778
 41
0.0277778
  0
VERTEX
  8
0
 10
0.0309787
 20
0.0642361
 30
0.0
 40
0.0277778
 41
0.0277778
  0
VERTEX
  8
0
 10
0.0219726
 20
0.0920682
 30
0.0
 40
0.0277778
 41
0.0277778
  0
VERTEX
  8
0
 10
0.0184463
 20
0.114149
 30
0.0
 40
0.0277778
 41
0.0277778
  0
VERTEX
  8
0
 10
0.0178494
 20
0.123155
 30
0.0
 40
0.0277778
 41
0.0277778
  0
VERTEX
  8
0
 10
0.0178494
 20
0.789822
 30
0.0
 40
0.0277778
 41
0.0277778
  0
VERTEX
  8
0
 10
0.0179579
 20
0.799696
 30
0.0
 40
0.0277778
 41
0.0277778
  0
VERTEX
  8
0
 10
0.0204536
 20
0.823188
 30
0.0
 40
0.0277778
 41
0.0277778
  0
VERTEX
  8
0
 10
0.0283203
 20
0.851508
 30
0.0
 40
0.0277778
 41
0.0277778
  0
VERTEX
  8
0
 10
0.0446506
 20
0.875543
 30
0.0
 40
0.0277778
 41
0.0277778
  0
VERTEX
  8
0
 10
0.0699328
 20
0.890246
 30
0.0
 40
0.0277778
 41
0.0277778
  0
VERTEX
  8
0
 10
0.0975478
 20
0.897786
 30
0.0
 40
0.0277778
 41
0.0277778
  0
VERTEX
  8
0
 10
0.119792
 20
0.900553
 30
0.0
 40
0.0277778
 41
0.0277778
  0
VERTEX
  8
0
 10
0.128961
 20
0.900933
 30
0.0
 40
0.0277778
 41
0.0277778
  0
VERTEX
  8
0
 10
1.90674
 20
0.900933
 30
0.0
 40
0.0277778
 41
0.0277778
  0
VERTEX
  8
0
 10
1.91585
 20
0.900444
 30
0.0
 40
0.0277778
 41
0.0277778
  0
VERTEX
  8
0
 10
1.93838
 20
0.896972
 30
0.0
 40
0.0277778
 41
0.0277778
  0
VERTEX
  8
0
 10
1.96664
 20
0.887588
 30
0.0
 40
0.0277778
 41
0.0277778
  0
VERTEX
  8
0
 10
1.99317
 20
0.869249
 30
0.0
 40
0.0277778
 41
0.0277778
  0
VERTEX
  8
0
 10
2.01004
 20
0.843479
 30
0.0
 40
0.0277778
 41
0.0277778
  0
VERTEX
  8
0
 10
2.01708
 20
0.817654
 30
0.0
 40
0.0277778
 41
0.0277778
  0
VERTEX
  8
0
 10
2.01833
 20
0.797797
 30
0.0
 40
0.0277778
 41
0.0277778
  0
VERTEX
  8
0
 10
2.01785
 20
0.789822
 30
0.0
 40
0.0277778
 41
0.0277778
  0
VERTEX
  8
0
 10
2.01785
 20
0.123155
 30
0.0
 40
0.0277778
 41
0.0277778
  0
VERTEX
  8
0
 10
2.01768
 20
0.11377
 30
0.0
 40
0.0277778
 41
0.0277778
  0
VERTEX
  8
0
 10
2.01525
 20
0.0911458
 30
0.0
 40
0.0277778
 41
0.0277778
  0
VERTEX
  8
0
 10
2.00743
 20
0.0634224
 30
0.0
 40
0.0277778
 41
0.0277778
  0
VERTEX
  8
0
 10
1.9911
 20
0.0388997
 30
0.0
 40
0.0277778
 41
0.0277778
  0
VERTEX
  8
0
 10
1.96576
 20
0.0233832
 30
0.0
 40
0.0277778
 41
0.0277778
  0
VERTEX
  8
0
 10
1.9381
 20
0.0154081
 30
0.0
 40
0.0277778
 41
0.0277778
  0
VERTEX
  8
0
 10
1.91585
 20
0.0124783
 30
0.0
 40
0.0277778
 41
0.0277778
  0
VERTEX
  8
0
 10
1.90674
 20
0.0120443
 30
0.0
 40
0.0277778
 41
0.0277778
  0
VERTEX
  8
0
 10
0.740072
 20
0.0120443
 30
0.0
 40
0.0277778
 41
0.0277778
  0
VERTEX
  8
0
 10
0.740072
 20
0.0675999
 30
0.0
 40
0.0277778
 41
0.0277778
  0
VERTEX
  8
0
 10
0.744521
 20
0.0825738
 30
0.0
 40
0.0277778
 41
0.0277778
  0
VERTEX
  8
0
 10
0.756347
 20
0.104926
 30
0.0
 40
0.0277778
 41
0.0277778
  0
VERTEX
  8
0
 10
0.766601
 20
0.112033
 30
0.0
 40
0.0277778
 41
0.0277778
  0
VERTEX
  8
0
 10
0.779622
 20
0.117839
 30
0.0
 40
0.0277778
 41
0.0277778
  0
VERTEX
  8
0
 10
0.790853
 20
0.121745
 30
0.0
 40
0.0277778
 41
0.0277778
  0
VERTEX
  8
0
 10
0.795628
 20
0.123155
 30
0.0
 40
0.0277778
 41
0.0277778
  0
VERTEX
  8
0
 10
0.851183
 20
0.123155
 30
0.0
 40
0.0277778
 41
0.0277778
  0
VERTEX
  8
0
 10
0.866863
 20
0.127658
 30
0.0
 40
0.0277778
 41
0.0277778
  0
VERTEX
  8
0
 10
0.890082
 20
0.139594
 30
0.0
 40
0.0277778
 41
0.0277778
  0
VERTEX
  8
0
 10
0.902126
 20
0.162924
 30
0.0
 40
0.0277778
 41
0.0277778
  0
VERTEX
  8
0
 10
0.906739
 20
0.178711
 30
0.0
 40
0.0277778
 41
0.0277778
  0
VERTEX
  8
0
 10
0.906739
 20
0.5676
 30
0.0
 40
0.0277778
 41
0.0277778
  0
VERTEX
  8
0
 10
0.907553
 20
0.576878
 30
0.0
 40
0.0277778
 41
0.0277778
  0
VERTEX
  8
0
 10
0.906901
 20
0.599338
 30
0.0
 40
0.0277778
 41
0.0277778
  0
VERTEX
  8
0
 10
0.900336
 20
0.626899
 30
0.0
 40
0.0277778
 41
0.0277778
  0
VERTEX
  8
0
 10
0.883192
 20
0.651476
 30
0.0
 40
0.0277778
 41
0.0277778
  0
VERTEX
  8
0
 10
0.855957
 20
0.667264
 30
0.0
 40
0.0277778
 41
0.0277778
  0
VERTEX
  8
0
 10
0.827365
 20
0.675347
 30
0.0
 40
0.0277778
 41
0.0277778
  0
VERTEX
  8
0
 10
0.804796
 20
0.678331
 30
0.0
 40
0.0277778
 41
0.0277778
  0
VERTEX
  8
0
 10
0.795628
 20
0.678711
 30
0.0
 40
0.0277778
 41
0.0277778
  0
VERTEX
  8
0
 10
0.462294
 20
0.678711
 30
0.0
 40
0.0277778
 41
0.0277778
  0
VERTEX
  8
0
 10
0.453233
 20
0.678549
 30
0.0
 40
0.0277778
 41
0.0277778
  0
VERTEX
  8
0
 10
0.431261
 20
0.675999
 30
0.0
 40
0.0277778
 41
0.0277778
  0
VERTEX
  8
0
 10
0.404081
 20
0.668132
 30
0.0
 40
0.0277778
 41
0.0277778
  0
VERTEX
  8
0
 10
0.379286
 20
0.651801
 30
0.0
 40
0.0277778
 41
0.0277778
  0
VERTEX
  8
0
 10
0.36301
 20
0.626574
 30
0.0
 40
0.0277778
 41
0.0277778
  0
VERTEX
  8
0
 10
0.354656
 20
0.598958
 30
0.0
 40
0.0277778
 41
0.0277778
  0
VERTEX
  8
0
 10
0.351617
 20
0.576768
 30
0.0
 40
0.0277778
 41
0.0277778
  0
VERTEX
  8
0
 10
0.351183
 20
0.5676
 30
0.0
 40
0.0277778
 41
0.0277778
  0
VERTEX
  8
0
 10
0.351183
 20
0.0120443
 30
0.0
 40
0.0277778
 41
0.0277778
  0
VERTEX
  8
0
 10
0.128961
 20
0.0120443
 30
0.0
 40
0.0277778
 41
0.0277778
  0
SEQEND
 8
0
  0
POLYLINE
  8
0
 62
     7
 66
     1
 10
0
 20
0
 30
0.0
 70
     1
 40
0
 41
0
  0
VERTEX
  8
0
 10
0.998156
 20
0.560004
 30
0.0
 40
0
 41
0
  0
VERTEX
  8
0
 10
1.00629
 20
0.568143
 30
0.0
 40
0
 41
0
  0
VERTEX
  8
0
 10
1.02675
 20
0.586968
 30
0.0
 40
0
 41
0
  0
VERTEX
  8
0
 10
1.05349
 20
0.608074
 30
0.0
 40
0
 41
0
  0
VERTEX
  8
0
 10
1.08073
 20
0.623156
 30
0.0
 40
0
 41
0
  0
VERTEX
  8
0
 10
1.12299
 20
0.633137
 30
0.0
 40
0
 41
0
  0
VERTEX
  8
0
 10
1.16553
 20
0.629124
 30
0.0
 40
0
 41
0
  0
VERTEX
  8
0
 10
1.19184
 20
0.613607
 30
0.0
 40
0
 41
0
  0
VERTEX
  8
0
 10
1.21251
 20
0.591254
 30
0.0
 40
0
 41
0
  0
VERTEX
  8
0
 10
1.23145
 20
0.566624
 30
0.0
 40
0
 41
0
  0
VERTEX
  8
0
 10
1.25266
 20
0.544217
 30
0.0
 40
0
 41
0
  0
VERTEX
  8
0
 10
1.29823
 20
0.506728
 30
0.0
 40
0
 41
0
  0
VERTEX
  8
0
 10
1.34896
 20
0.475206
 30
0.0
 40
0
 41
0
  0
VERTEX
  8
0
 10
1.39681
 20
0.458768
 30
0.0
 40
0
 41
0
  0
VERTEX
  8
0
 10
1.44754
 20
0.44949
 30
0.0
 40
0
 41
0
  0
VERTEX
  8
0
 10
1.53244
 20
0.442492
 30
0.0
 40
0
 41
0
  0
VERTEX
  8
0
 10
1.61029
 20
0.447537
 30
0.0
 40
0
 41
0
  0
VERTEX
  8
0
 10
1.67529
 20
0.470865
 30
0.0
 40
0
 41
0
  0
VERTEX
  8
0
 10
1.72954
 20
0.510688
 30
0.0
 40
0
 41
0
  0
VERTEX
  8
0
 10
1.75379
 20
0.54975
 30
0.0
 40
0
 41
0
  0
VERTEX
  8
0
 10
1.76622
 20
0.593533
 30
0.0
 40
0
 41
0
  0
VERTEX
  8
0
 10
1.77121
 20
0.656358
 30
0.0
 40
0
 41
0
  0
VERTEX
  8
0
 10
1.76389
 20
0.713921
 30
0.0
 40
0
 41
0
  0
VERTEX
  8
0
 10
1.74556
 20
0.751303
 30
0.0
 40
0
 41
0
  0
VERTEX
  8
0
 10
1.71804
 20
0.777072
 30
0.0
 40
0
 41
0
  0
VERTEX
  8
0
 10
1.66911
 20
0.809463
 30
0.0
 40
0
 41
0
  0
VERTEX
  8
0
 10
1.61257
 20
0.83035
 30
0.0
 40
0
 41
0
  0
VERTEX
  8
0
 10
1.52229
 20
0.839356
 30
0.0
 40
0
 41
0
  0
VERTEX
  8
0
 10
1.43826
 20
0.832249
 30
0.0
 40
0
 41
0
  0
VERTEX
  8
0
 10
1.36768
 20
0.806424
 30
0.0
 40
0
 41
0
  0
VERTEX
  8
0
 10
1.31798
 20
0.759332
 30
0.0
 40
0
 41
0
  0
VERTEX
  8
0
 10
1.30941
 20
0.719401
 30
0.0
 40
0
 41
0
  0
VERTEX
  8
0
 10
1.31597
 20
0.683865
 30
0.0
 40
0
 41
0
  0
VERTEX
  8
0
 10
1.33192
 20
0.653808
 30
0.0
 40
0
 41
0
  0
VERTEX
  8
0
 10
1.35145
 20
0.630479
 30
0.0
 40
0
 41
0
  0
VERTEX
  8
0
 10
1.36892
 20
0.615018
 30
0.0
 40
0
 41
0
  0
VERTEX
  8
0
 10
1.37863
 20
0.608615
 30
0.0
 40
0
 41
0
  0
VERTEX
  8
0
 10
1.37478
 20
0.612358
 30
0.0
 40
0
 41
0
  0
VERTEX
  8
0
 10
1.35173
 20
0.627388
 30
0.0
 40
0
 41
0
  0
VERTEX
  8
0
 10
1.34679
 20
0.635363
 30
0.0
 40
0
 41
0
  0
VERTEX
  8
0
 10
1.32476
 20
0.659614
 30
0.0
 40
0
 41
0
  0
VERTEX
  8
0
 10
1.29471
 20
0.675347
 30
0.0
 40
0
 41
0
  0
VERTEX
  8
0
 10
1.25244
 20
0.687879
 30
0.0
 40
0
 41
0
  0
VERTEX
  8
0
 10
1.20584
 20
0.69591
 30
0.0
 40
0
 41
0
  0
VERTEX
  8
0
 10
1.16271
 20
0.697971
 30
0.0
 40
0
 41
0
  0
VERTEX
  8
0
 10
1.1135
 20
0.684028
 30
0.0
 40
0
 41
0
  0
VERTEX
  8
0
 10
1.07357
 20
0.655761
 30
0.0
 40
0
 41
0
  0
VERTEX
  8
0
 10
1.04834
 20
0.6301
 30
0.0
 40
0
 41
0
  0
VERTEX
  8
0
 10
1.02387
 20
0.598361
 30
0.0
 40
0
 41
0
  0
VERTEX
  8
0
 10
1.00543
 20
0.571397
 30
0.0
 40
0
 41
0
  0
VERTEX
  8
0
 10
0.998156
 20
0.560004
 30
0.0
 40
0
 41
0
  0
SEQEND
 8
0
  0
POLYLINE
  8
0
 62
     0
 66
     1
 10
0
 20
0
 30
0.0
 70
     1
 40
2.00638
 41
2.00638
  0
VERTEX
  8
0
 10
0.998156
 20
0.560004
 30
0.0
 40
0.0278664
 41
0.0278664
  0
VERTEX
  8
0
 10
1.00629
 20
0.568143
 30
0.0
 40
0.0278664
 41
0.0278664
  0
VERTEX
  8
0
 10
1.02675
 20
0.586968
 30
0.0
 40
0.0278664
 41
0.0278664
  0
VERTEX
  8
0
 10
1.05349
 20
0.608074
 30
0.0
 40
0.0278664
 41
0.0278664
  0
VERTEX
  8
0
 10
1.08073
 20
0.623156
 30
0.0
 40
0.0278664
 41
0.0278664
  0
VERTEX
  8
0
 10
1.12299
 20
0.633137
 30
0.0
 40
0.0278664
 41
0.0278664
  0
VERTEX
  8
0
 10
1.16553
 20
0.629124
 30
0.0
 40
0.0278664
 41
0.0278664
  0
VERTEX
  8
0
 10
1.19184
 20
0.613607
 30
0.0
 40
0.0278664
 41
0.0278664
  0
VERTEX
  8
0
 10
1.21251
 20
0.591254
 30
0.0
 40
0.0278664
 41
0.0278664
  0
VERTEX
  8
0
 10
1.23145
 20
0.566624
 30
0.0
 40
0.0278664
 41
0.0278664
  0
VERTEX
  8
0
 10
1.25266
 20
0.544217
 30
0.0
 40
0.0278664
 41
0.0278664
  0
VERTEX
  8
0
 10
1.29823
 20
0.506674
 30
0.0
 40
0.0278664
 41
0.0278664
  0
VERTEX
  8
0
 10
1.34896
 20
0.475151
 30
0.0
 40
0.0278664
 41
0.0278664
  0
VERTEX
  8
0
 10
1.39681
 20
0.458768
 30
0.0
 40
0.0278664
 41
0.0278664
  0
VERTEX
  8
0
 10
1.44754
 20
0.44949
 30
0.0
 40
0.0278664
 41
0.0278664
  0
VERTEX
  8
0
 10
1.53244
 20
0.442492
 30
0.0
 40
0.0278664
 41
0.0278664
  0
VERTEX
  8
0
 10
1.61029
 20
0.447537
 30
0.0
 40
0.0278664
 41
0.0278664
  0
VERTEX
  8
0
 10
1.67529
 20
0.470865
 30
0.0
 40
0.0278664
 41
0.0278664
  0
VERTEX
  8
0
 10
1.72954
 20
0.510688
 30
0.0
 40
0.0278664
 41
0.0278664
  0
VERTEX
  8
0
 10
1.75379
 20
0.54975
 30
0.0
 40
0.0278664
 41
0.0278664
  0
VERTEX
  8
0
 10
1.76622
 20
0.593533
 30
0.0
 40
0.0278664
 41
0.0278664
  0
VERTEX
  8
0
 10
1.77121
 20
0.656358
 30
0.0
 40
0.0278664
 41
0.0278664
  0
VERTEX
  8
0
 10
1.76389
 20
0.713921
 30
0.0
 40
0.0278664
 41
0.0278664
  0
VERTEX
  8
0
 10
1.74556
 20
0.751303
 30
0.0
 40
0.0278664
 41
0.0278664
  0
VERTEX
  8
0
 10
1.71804
 20
0.777072
 30
0.0
 40
0.0278664
 41
0.0278664
  0
VERTEX
  8
0
 10
1.66911
 20
0.809407
 30
0.0
 40
0.0278664
 41
0.0278664
  0
VERTEX
  8
0
 10
1.61257
 20
0.83035
 30
0.0
 40
0.0278664
 41
0.0278664
  0
VERTEX
  8
0
 10
1.52229
 20
0.839356
 30
0.0
 40
0.0278664
 41
0.0278664
  0
VERTEX
  8
0
 10
1.43826
 20
0.832249
 30
0.0
 40
0.0278664
 41
0.0278664
  0
VERTEX
  8
0
 10
1.36768
 20
0.806424
 30
0.0
 40
0.0278664
 41
0.0278664
  0
VERTEX
  8
0
 10
1.31798
 20
0.759332
 30
0.0
 40
0.0278664
 41
0.0278664
  0
VERTEX
  8
0
 10
1.30941
 20
0.719401
 30
0.0
 40
0.0278664
 41
0.0278664
  0
VERTEX
  8
0
 10
1.31597
 20
0.683865
 30
0.0
 40
0.0278664
 41
0.0278664
  0
VERTEX
  8
0
 10
1.33192
 20
0.653808
 30
0.0
 40
0.0278664
 41
0.0278664
  0
VERTEX
  8
0
 10
1.35145
 20
0.630479
 30
0.0
 40
0.0278664
 41
0.0278664
  0
VERTEX
  8
0
 10
1.36892
 20
0.615018
 30
0.0
 40
0.0278664
 41
0.0278664
  0
VERTEX
  8
0
 10
1.37863
 20
0.608615
 30
0.0
 40
0.0278664
 41
0.0278664
  0
VERTEX
  8
0
 10
1.37478
 20
0.612358
 30
0.0
 40
0.0278664
 41
0.0278664
  0
VERTEX
  8
0
 10
1.35173
 20
0.627388
 30
0.0
 40
0.0278664
 41
0.0278664
  0
VERTEX
  8
0
 10
1.34679
 20
0.635363
 30
0.0
 40
0.0278664
 41
0.0278664
  0
VERTEX
  8
0
 10
1.32476
 20
0.659614
 30
0.0
 40
0.0278664
 41
0.0278664
  0
VERTEX
  8
0
 10
1.29471
 20
0.675347
 30
0.0
 40
0.0278664
 41
0.0278664
  0
VERTEX
  8
0
 10
1.25244
 20
0.687879
 30
0.0
 40
0.0278664
 41
0.0278664
  0
VERTEX
  8
0
 10
1.20584
 20
0.69591
 30
0.0
 40
0.0278664
 41
0.0278664
  0
VERTEX
  8
0
 10
1.16271
 20
0.697971
 30
0.0
 40
0.0278664
 41
0.0278664
  0
VERTEX
  8
0
 10
1.1135
 20
0.684028
 30
0.0
 40
0.0278664
 41
0.0278664
  0
VERTEX
  8
0
 10
1.07357
 20
0.655707
 30
0.0
 40
0.0278664
 41
0.0278664
  0
VERTEX
  8
0
 10
1.04834
 20
0.630046
 30
0.0
 40
0.0278664
 41
0.0278664
  0
VERTEX
  8
0
 10
1.02387
 20
0.598361
 30
0.0
 40
0.0278664
 41
0.0278664
  0
VERTEX
  8
0
 10
1.00543
 20
0.571397
 30
0.0
 40
0.0278664
 41
0.0278664
  0
VERTEX
  8
0
 10
0.998156
 20
0.560004
 30
0.0
 40
0.0278664
 41
0.0278664
  0
SEQEND
 8
0
  0
POLYLINE
  8
0
 62
     7
 66
     1
 10
0
 20
0
 30
0.0
 40
0
 41
0
  0
VERTEX
  8
0
 10
1.38113
 20
0.607206
 30
0.0
 40
0
 41
0
  0
VERTEX
  8
0
 10
1.38558
 20
0.60216
 30
0.0
 40
0
 41
0
  0
VERTEX
  8
0
 10
1.39703
 20
0.590386
 30
0.0
 40
0
 41
0
  0
VERTEX
  8
0
 10
1.41233
 20
0.577365
 30
0.0
 40
0
 41
0
  0
VERTEX
  8
0
 10
1.42839
 20
0.568251
 30
0.0
 40
0
 41
0
  0
VERTEX
  8
0
 10
1.49908
 20
0.556099
 30
0.0
 40
0
 41
0
  0
VERTEX
  8
0
 10
1.56847
 20
0.568251
 30
0.0
 40
0
 41
0
  0
VERTEX
  8
0
 10
1.59446
 20
0.592936
 30
0.0
 40
0
 41
0
  0
VERTEX
  8
0
 10
1.59549
 20
0.623915
 30
0.0
 40
0
 41
0
  0
VERTEX
  8
0
 10
1.58143
 20
0.638672
 30
0.0
 40
0
 41
0
  0
VERTEX
  8
0
 10
1.57015
 20
0.646104
 30
0.0
 40
0
 41
0
  0
SEQEND
 8
0
  0
POLYLINE
  8
0
 62
     0
 66
     1
 10
0
 20
0
 30
0.0
 40
2.00638
 41
2.00638
  0
VERTEX
  8
0
 10
1.38113
 20
0.607206
 30
0.0
 40
0.0278664
 41
0.0278664
  0
VERTEX
  8
0
 10
1.38558
 20
0.60216
 30
0.0
 40
0.0278664
 41
0.0278664
  0
VERTEX
  8
0
 10
1.39703
 20
0.590386
 30
0.0
 40
0.0278664
 41
0.0278664
  0
VERTEX
  8
0
 10
1.41233
 20
0.577365
 30
0.0
 40
0.0278664
 41
0.0278664
  0
VERTEX
  8
0
 10
1.42839
 20
0.568251
 30
0.0
 40
0.0278664
 41
0.0278664
  0
VERTEX
  8
0
 10
1.49908
 20
0.556099
 30
0.0
 40
0.0278664
 41
0.0278664
  0
VERTEX
  8
0
 10
1.56847
 20
0.568251
 30
0.0
 40
0.0278664
 41
0.0278664
  0
VERTEX
  8
0
 10
1.59446
 20
0.592936
 30
0.0
 40
0.0278664
 41
0.0278664
  0
VERTEX
  8
0
 10
1.59549
 20
0.623915
 30
0.0
 40
0.0278664
 41
0.0278664
  0
VERTEX
  8
0
 10
1.58143
 20
0.638672
 30
0.0
 40
0.0278664
 41
0.0278664
  0
VERTEX
  8
0
 10
1.57015
 20
0.646104
 30
0.0
 40
0.0278664
 41
0.0278664
  0
SEQEND
 8
0
  0
ENDSEC
  0
EOF
